<svg version="1.2" xmlns="http://www.w3.org/2000/svg" viewBox="0 0 64 80" width="33" height="41">
	<style>
		.s0 { fill: #fffdfd } 
	</style>
	<path id="&lt;Compound Path&gt;" class="s0" d="m29.19 47.12c-1.08 5.64-2.4 11.05-6.32 13.88-1.21-8.53 1.77-14.94 3.16-21.74-2.36-3.95 0.28-11.92 5.27-9.95 6.13 2.41-5.31 14.7 2.37 16.24 8.03 1.6 11.3-13.84 6.33-18.86-7.19-7.25-20.93-0.17-19.24 10.21 0.41 2.54 3.05 3.31 1.05 6.81-4.6-1.01-5.97-4.62-5.8-9.43 0.29-7.87 7.12-13.38 13.97-14.14 8.67-0.97 16.8 3.16 17.92 11.26 1.27 9.15-3.91 19.05-13.17 18.34-2.52-0.2-3.57-1.43-5.54-2.62z"/>
</svg>